<svg aria-hidden="true" style="position: absolute; width: 0; height: 0; overflow: hidden;" version="1.1" xmlns="http://www.w3.org/2000/svg" xmlns:xlink="http://www.w3.org/1999/xlink">
<defs>
<symbol id="audience" viewBox="0 0 32 32">
<path d="M29.547 0.208h-15.418c-1.004 0-1.82 0.816-1.82 1.82v6.382l-11.454 4.808c-0.13 0.054-0.218 0.177-0.228 0.317s0.059 0.274 0.18 0.347l1.461 0.874v9.317c-0.747 0.17-1.308 0.839-1.308 1.639v0.898c0 0.206 0.167 0.373 0.373 0.373h2.616c0.206 0 0.373-0.167 0.373-0.373v-0.898c0-0.799-0.561-1.467-1.308-1.638v-8.871l1.155 0.691c-0.035 0.266-0.005-0.464-0.016 4.337 0 1.578 4.043 2.424 8.157 2.472v7.271c0 0.376 0.115 0.725 0.312 1.015 0.327 0.484 0.881 0.803 1.508 0.803h15.418c1.003 0 1.818-0.816 1.818-1.818 0 0.050-0.002-1.54 0-27.945 0-0.99-0.819-1.82-1.817-1.82zM3.576 25.712v0.525h-1.87v-0.525c0-0.517 0.418-0.937 0.933-0.937 0.517 0 0.937 0.421 0.937 0.937zM29.547 31.044h-15.418c-0.37 0-0.697-0.187-0.89-0.472-0.116-0.171-0.183-0.377-0.183-0.599v-2.52h17.561v2.521c0 0.584-0.487 1.070-1.070 1.070zM30.616 26.707h-17.562v-4.001c2.008-0.023 8.161-0.465 8.161-2.475-0.002-3.016 0.005-4.24-0.009-4.343l3.35-2.006c0.121-0.072 0.19-0.206 0.18-0.347s-0.098-0.263-0.228-0.317l-11.454-4.808v-3.115h17.562v21.412zM12.681 17.755c-2.069 0-6.053 0.267-7.784 1.397 0.011-3.457-0.12-3.232 0.306-3.525 1.075-0.792 4.15-1.344 7.478-1.344 1.451 0 7.788 0.399 7.788 1.741v3.129c-1.747-1.141-5.71-1.398-7.788-1.398zM13.055 2.028c0-0.591 0.481-1.072 1.072-1.072h15.418c0.592 0 1.071 0.488 1.071 1.072v2.521h-17.561v-2.52zM12.681 9.063l10.859 4.558-2.691 1.61c-1.43-1.419-6.162-1.694-8.168-1.694-2.008 0-6.741 0.276-8.168 1.694l-2.692-1.611 10.86-4.558zM4.898 20.231c0-0.604 2.673-1.731 7.784-1.731 5.113 0 7.788 1.127 7.788 1.731s-2.675 1.731-7.788 1.731c-5.11 0-7.784-1.127-7.784-1.731z"></path>
<path d="M21.837 28.016c-0.68 0-1.234 0.553-1.234 1.234s0.553 1.234 1.234 1.234c0.68 0 1.234-0.554 1.234-1.234s-0.553-1.234-1.234-1.234zM21.837 29.737c-0.269 0-0.488-0.219-0.488-0.488s0.219-0.488 0.488-0.488c0.269 0 0.488 0.219 0.488 0.488s-0.219 0.488-0.488 0.488z"></path>
<path d="M23.259 2.379h-2.846v0.746h2.846v-0.746z"></path>
</symbol>
<symbol id="book" viewBox="0 0 44 32">
<path d="M19.6 4.608h-13.64v1.021h13.64v-1.021z"></path>
<path d="M19.6 8.416h-11.597v1.021h11.597v-1.021z"></path>
<path d="M19.6 12.224h-13.64v1.021h13.64v-1.021z"></path>
<path d="M19.6 16.032h-11.597v1.021h11.597v-1.021z"></path>
<path d="M19.6 19.84h-13.64v1.021h13.64v-1.021z"></path>
<path d="M19.6 23.648h-11.597v1.021h11.597v-1.021z"></path>
<path d="M38.323 4.608h-13.64v1.021h13.64v-1.021z"></path>
<path d="M36.281 8.416h-11.597v1.021h11.597v-1.021z"></path>
<path d="M38.323 12.224h-13.64v1.021h13.64v-1.021z"></path>
<path d="M36.281 16.032h-11.597v1.021h11.597v-1.021z"></path>
<path d="M38.323 19.84h-13.64v1.021h13.64v-1.021z"></path>
<path d="M36.281 23.648h-11.597v1.021h11.597v-1.021z"></path>
<path d="M43.248 3.445h-1.872v-2.812c0-0.282-0.229-0.511-0.511-0.511h-15.265c-1.49 0-2.781 0.805-3.458 2.011-0.678-1.206-1.97-2.011-3.459-2.011h-15.265c-0.282 0-0.511 0.229-0.511 0.511v2.812h-1.872c-0.282 0-0.511 0.229-0.511 0.511v27.411c0 0.282 0.229 0.511 0.511 0.511 5.127 0 37.068 0 42.213 0 0.282 0 0.511-0.229 0.511-0.511v-27.411c0-0.282-0.229-0.511-0.511-0.511zM25.601 1.144h14.754c0 4.573 0 16.619 0 27.35h-15.843c-0.702 0-1.405 0.296-1.859 0.68v-25.089c0-1.63 1.305-2.942 2.948-2.942zM3.929 1.144h14.754c1.597 0 2.889 1.243 2.942 2.829 0.001 0.022 0.003 0.091 0.006 0.112v25.087c-0.453-0.383-1.148-0.678-1.852-0.678h-15.85c0-10.728 0-22.779 0-27.35zM1.546 4.467h1.362v24.538c0 0.282 0.229 0.511 0.511 0.511h16.361c0.778 0 1.531 0.511 1.771 1.341h-20.005v-26.39zM42.738 30.856h-20.004c0.242-0.834 0.987-1.341 1.778-1.341h16.354c0.282 0 0.511-0.229 0.511-0.511v-24.538h1.362v26.39z"></path>
</symbol>
<symbol id="audiobook" viewBox="0 0 37 32">
<path d="M2.381 29.453h12.23c0.62 1.285 1.917 2.116 3.38 2.116h0.772c1.465 0 2.761-0.83 3.381-2.116h12.237c1.26 0 2.286-1.025 2.286-2.286v-21.905c0-1.26-1.025-2.286-2.286-2.286h-1.234v-1.021c0-0.84-0.684-1.524-1.524-1.524h-26.491c-0.84 0-1.524 0.683-1.524 1.524v1.021h-1.227c-1.26 0-2.286 1.025-2.286 2.286v21.905c0 1.26 1.025 2.286 2.286 2.286zM31.621 24.752h-12.478v-17.705c2.884 0.377 5.121 2.845 5.121 5.831v0.687l-0.181-0.040c-0.196-0.042-0.403-0.007-0.574 0.102s-0.291 0.281-0.334 0.478l-1.213 5.519c-0.090 0.41 0.17 0.816 0.58 0.907l2.621 0.578c0.135 0.029 0.273 0.043 0.411 0.043 0.922 0 1.707-0.631 1.908-1.535l0.702-3.192c0.231-1.048-0.433-2.090-1.484-2.324l-0.912-0.201v-1.023c0-3.827-2.917-6.986-6.644-7.37v-3.551h12.48l-0.001 22.796zM24.499 15.177l1.871 0.412c0.234 0.052 0.376 0.275 0.325 0.508l-0.702 3.191c-0.051 0.231-0.306 0.374-0.507 0.331l-1.874-0.413 0.886-4.030zM5.132 1.956h12.487v3.55c-3.731 0.381-6.652 3.541-6.652 7.371v1.022l-0.914 0.202c-0.509 0.113-0.943 0.416-1.222 0.854-0.28 0.439-0.373 0.961-0.26 1.468l0.7 3.188c0.19 0.892 0.993 1.54 1.909 1.54 0.138 0 0.275-0.015 0.416-0.045l2.61-0.577c0.41-0.091 0.67-0.496 0.58-0.907l-1.213-5.519c-0.043-0.198-0.164-0.37-0.334-0.478s-0.378-0.144-0.574-0.102l-0.174 0.038v-0.686c0-2.988 2.24-5.458 5.128-5.832v17.706h-12.487v-22.796zM12.249 15.177l0.887 4.029-1.863 0.411c-0.229 0.052-0.463-0.1-0.512-0.328l-0.702-3.196c-0.025-0.111-0.005-0.224 0.055-0.319 0.061-0.096 0.157-0.162 0.268-0.187l1.867-0.412zM1.619 5.262c0-0.42 0.341-0.762 0.762-0.762h1.227v20.252c0 0.84 0.684 1.524 1.524 1.524h26.491c0.84 0 1.524-0.683 1.524-1.524v-20.252h1.234c0.42 0 0.762 0.342 0.762 0.762v21.905c0 0.42-0.342 0.762-0.762 0.762h-12.754c-0.335 0-0.63 0.218-0.728 0.538-0.289 0.943-1.147 1.577-2.135 1.577h-0.772c-0.984 0-1.841-0.631-2.138-1.586-0.101-0.315-0.394-0.529-0.725-0.529h-12.747c-0.42 0-0.762-0.342-0.762-0.762v-21.905z"></path>
</symbol>
<symbol id="support" viewBox="0 0 33 32">
<path d="M1.993 12.558v2.831c0 0.152 0.070 0.295 0.189 0.39 1.935 1.523 4.363 2.362 6.837 2.362 0.74 0 1.482-0.077 2.206-0.224 1.544 0.683 3.188 1.032 4.89 1.032 1.707 0 3.351-0.349 4.89-1.032 3.091 0.624 6.384-0.046 9.042-2.138 0.12-0.094 0.189-0.238 0.189-0.39v-2.831c0-0.416-0.206-0.794-0.575-1.027l-3.867-2.176c0.846-1.073 1.476-2.602 1.586-3.913 0.321-2.256-1.518-4.646-4.166-4.646-1.113 0-2.171 0.458-2.948 1.227-0.027 0.027-0.058 0.049-0.084 0.076-0.024 0.025-0.043 0.054-0.067 0.080-0.016 0.017-0.029 0.036-0.044 0.053-0.757-1.38-2.211-2.232-3.924-2.232-0.166 0-0.33 0.011-0.492 0.028-0.010-0.001-0.018-0.006-0.028-0.006-0.092 0-0.287 0.024-0.391 0.054-0.015 0.004-0.026 0.015-0.041 0.021-1.279 0.259-2.363 1.034-3.013 2.156-0.781-0.911-1.93-1.457-3.179-1.457-3.908 0-5.642 4.612-2.557 8.581l-3.903 2.167c-0.346 0.219-0.553 0.598-0.553 1.014zM20.996 16.828c-0.084 0.041-0.167 0.085-0.251 0.123l-0 0c-0.001 0-0.001 0.001-0.002 0.001-1.452 0.667-3.009 1.006-4.627 1.006-1.614 0-3.17-0.338-4.629-1.007-0.71-0.323-1.397-0.734-2.045-1.221v-2.87c0-0.098 0.047-0.184 0.102-0.221l4.542-2.524c0.565 0.48 1.287 0.832 2.035 0.832 0.721 0 1.499-0.357 2.052-0.843l4.487 2.52c0.083 0.053 0.13 0.139 0.13 0.237v2.87c-0.571 0.429-1.173 0.795-1.794 1.098zM29.154 12.382c0.059 0.037 0.092 0.101 0.092 0.176v2.587c-1.968 1.477-4.337 2.148-6.737 1.98 0.369-0.23 0.771-0.516 1.083-0.76 0.12-0.094 0.19-0.238 0.19-0.39v-3.114c0-0.435-0.218-0.835-0.61-1.087l-2.383-1.339 0.58-0.321c0.703 0.573 1.307 0.744 1.848 0.744 0.663 0 1.36-0.325 1.878-0.759l4.060 2.284zM23.216 1.788c1.38 0 2.593 0.902 3.021 2.142-0.833-0.099-1.647-0.51-2.237-1.142-0.107-0.114-0.258-0.173-0.415-0.155-0.155 0.016-0.293 0.105-0.373 0.239-0.566 0.948-1.493 1.58-2.548 1.76 0-0.001-0-0.002-0-0.003 0.005-0.216-0.008-0.434-0.033-0.653-0.003-0.022-0.005-0.044-0.007-0.067-0.032-0.248-0.107-0.559-0.122-0.609 0.563-0.902 1.609-1.513 2.713-1.513zM20.556 5.644c1.253-0.137 2.386-0.767 3.164-1.762 0.767 0.629 1.74 1.010 2.702 1.056-0.007 1.792-1.471 4.927-3.206 4.927-1.337 0-2.479-1.912-2.905-3.238 0.108-0.341 0.187-0.669 0.245-0.983zM20.657 9.373l-0.886 0.491-0.895-0.502c0.332-0.413 0.636-0.893 0.896-1.413 0.25 0.526 0.55 1.010 0.884 1.425zM19.32 6.465c-0.478 1.427-1.705 3.49-3.199 3.49-1.742 0-3.226-2.864-3.509-4.696 0.075-0.019 2.43 0.126 4.049-2.001 0.822 0.688 1.932 1.143 3.011 1.188 0.013 0.647-0.144 1.406-0.352 2.018zM16.15 0.992c2.78 0 3.309 2.392 3.352 2.442-1.008-0.102-1.928-0.596-2.563-1.276-0.107-0.114-0.262-0.171-0.416-0.154-0.155 0.017-0.293 0.106-0.373 0.241-0.551 0.932-1.414 1.589-2.414 1.868-0.386 0.108-0.803 0.157-1.166 0.154 0.136-1.822 1.596-3.274 3.58-3.274zM12.461 7.938c0.257 0.515 0.563 1.006 0.913 1.438l-0.875 0.487-0.907-0.51c0.344-0.438 0.636-0.929 0.87-1.415zM9.006 1.788c1.125 0 2.155 0.571 2.729 1.514-0.029 0.1-0.106 0.498-0.117 0.548-0.69-0.165-1.324-0.533-1.821-1.062-0.107-0.114-0.258-0.17-0.416-0.154-0.155 0.017-0.293 0.106-0.372 0.24-0.663 1.119-1.881 1.815-3.177 1.815 0.158-1.627 1.518-2.9 3.174-2.9zM5.876 5.678c1.425-0.014 2.77-0.686 3.643-1.796 0.596 0.491 1.304 0.813 2.055 0.961 0.029 0.575 0.179 1.273 0.35 1.789-0.274 0.84-0.799 1.841-1.451 2.505-0.004 0.004-0.010 0.006-0.014 0.010-0.408 0.43-0.988 0.719-1.444 0.719-1.594 0-2.841-2.508-3.14-4.188zM2.985 12.558c0-0.075 0.033-0.139 0.067-0.162l4.116-2.284c0.247 0.206 0.304 0.229 0.353 0.265l-0 0c0.484 0.322 0.928 0.482 1.534 0.482 0.645 0 1.232-0.273 1.749-0.694 0.029-0.023 0.060-0.045 0.088-0.068l0.587 0.33-2.446 1.361c-0.366 0.236-0.584 0.636-0.584 1.071v3.114c0 0.152 0.070 0.296 0.19 0.39 0.317 0.249 0.727 0.539 1.083 0.761-2.434 0.166-4.803-0.528-6.737-1.98v-2.587z"></path>
<path d="M31.259 20.781c-0.61-0.383-1.361-0.423-2.007-0.11l-6.119 2.956c-0.021-1.145-0.956-2.072-2.107-2.072l-3.509 0.001c-1.73-1.504-3.941-2.425-5.952-2.473-1.983-0.047-3.763-0.060-4.593-0.064v-1.002h-6.972v11.517h6.972v-1.379c1.912 1.097 6.939 3.845 9.325 3.845 0.054 0 0.107-0.001 0.158-0.004 4.196-0.235 14.091-7.198 14.743-7.661 0.638-0.37 1.034-1.056 1.034-1.796 0-0.719-0.364-1.376-0.973-1.758zM5.98 28.542h-4.988v-9.533h4.988v9.533zM30.687 23.484c-0.015 0.008-0.030 0.017-0.044 0.028-0.102 0.073-10.281 7.271-14.244 7.494-0.039 0.002-0.079 0.003-0.121 0.003-2.092 0-7.194-2.753-9.307-4.001v-6.997c0.827 0.004 2.597 0.017 4.569 0.064 1.837 0.044 3.876 0.921 5.456 2.346l0.141 0.128 3.887-0.001c0.617 0 1.119 0.502 1.119 1.119s-0.502 1.119-1.119 1.119h-7.142v0.992h7.142c0.684 0 1.288-0.333 1.674-0.839l6.984-3.373c0.343-0.167 0.725-0.146 1.049 0.057s0.508 0.537 0.508 0.918c0 0.391-0.212 0.753-0.553 0.945z"></path>
<path d="M16.612 12.158h-0.992v0.92h0.992v-0.92z"></path>
<path d="M16.612 13.992h-0.992v0.92h0.992v-0.92z"></path>
<path d="M16.612 15.826h-0.992v0.92h0.992v-0.92z"></path>
</symbol>
<symbol id="vno" viewBox="0 0 31 32">
<path d="M30.151 4.961c0-0.001-0.001-0.001-0.001-0.002-0.007-0.016-0.015-0.031-0.024-0.045-0.001-0.001-0.002-0.002-0.002-0.003-0.010-0.015-0.021-0.029-0.034-0.042l-4.806-4.806c-0.013-0.013-0.026-0.023-0.041-0.033-0.003-0.002-0.006-0.004-0.009-0.006-0.012-0.007-0.024-0.014-0.036-0.019-0.004-0.002-0.007-0.003-0.011-0.005-0.031-0.013-0.065-0.019-0.099-0.020-0.002 0-0.004-0-0.005-0h-21.171c-0.157 0-0.284 0.127-0.284 0.284v29.311c0 0.019 0.002 0.037 0.006 0.056 0.002 0.008 0.005 0.015 0.007 0.023 0.003 0.010 0.006 0.020 0.009 0.030 0.004 0.009 0.009 0.017 0.014 0.026 0.004 0.007 0.008 0.016 0.013 0.023 0.010 0.014 0.021 0.028 0.033 0.040 0.001 0.001 0.001 0.002 0.003 0.003l2.165 2.164c0.111 0.111 0.29 0.111 0.402 0l1.964-1.963 1.964 1.963c0.055 0.056 0.128 0.083 0.201 0.083s0.145-0.027 0.201-0.083l1.963-1.963 1.965 1.963c0.111 0.111 0.291 0.111 0.402 0l1.963-1.963 1.963 1.963c0.111 0.111 0.291 0.111 0.401 0l1.965-1.963 1.964 1.963c0.055 0.056 0.128 0.083 0.201 0.083s0.145-0.027 0.201-0.083l1.963-1.963 1.965 1.963c0.111 0.111 0.291 0.111 0.401 0l2.165-2.164c0.004-0.004 0.007-0.009 0.011-0.014 0.008-0.009 0.017-0.019 0.024-0.029 0.007-0.009 0.011-0.020 0.016-0.030 0.003-0.007 0.007-0.012 0.009-0.019 0.006-0.013 0.009-0.026 0.012-0.039 0.001-0.005 0.003-0.009 0.005-0.013 0.004-0.020 0.006-0.038 0.006-0.058v-24.503c-0.001-0.037-0.008-0.074-0.023-0.109zM25.367 0.949l3.836 3.835h-3.836v-3.835zM29.604 29.456l-1.88 1.88-1.965-1.963c-0.111-0.111-0.29-0.111-0.401 0l-1.963 1.963-1.964-1.963c-0.111-0.111-0.291-0.111-0.402 0l-1.965 1.963-1.963-1.962c0-0-0-0.001-0-0.001-0.055-0.055-0.128-0.083-0.201-0.083s-0.145 0.028-0.201 0.083c-0 0-0 0-0 0l-1.963 1.963-1.965-1.963c-0.111-0.111-0.29-0.111-0.402 0l-1.963 1.963-1.964-1.963c-0.111-0.111-0.29-0.111-0.402 0l-1.965 1.963-1.88-1.88v-28.909h20.603v4.522c0 0.157 0.127 0.284 0.284 0.284h4.521l0 24.103z"></path>
<path d="M6.314 3.234h9.303c0.157 0 0.284-0.127 0.284-0.284s-0.127-0.284-0.284-0.284h-9.303c-0.157 0-0.284 0.127-0.284 0.284s0.127 0.284 0.284 0.284z"></path>
<path d="M6.314 4.991h14.919c0.157 0 0.284-0.127 0.284-0.284s-0.127-0.284-0.284-0.284h-14.919c-0.157 0-0.284 0.127-0.284 0.284s0.127 0.284 0.284 0.284z"></path>
<path d="M6.030 6.568v9.199c0 0.157 0.127 0.284 0.284 0.284h21.172c0.157 0 0.284-0.127 0.284-0.284v-9.199c0-0.157-0.127-0.284-0.284-0.284h-21.172c-0.157 0-0.284 0.127-0.284 0.284zM12.308 6.852h14.893v2.445h-14.893v-2.445zM12.308 9.865h14.893v2.444h-14.893v-2.444zM12.308 12.877h14.893v2.605h-14.893v-2.605zM6.598 6.852h5.142v2.445h-5.142v-2.445zM6.598 9.865h5.142v2.444h-5.142v-2.444zM6.598 12.877h5.142v2.605h-5.142v-2.605z"></path>
<path d="M27.486 17.329h-21.172c-0.157 0-0.284 0.127-0.284 0.284v9.198c0 0.157 0.127 0.284 0.284 0.284s0.284-0.127 0.284-0.284v-2.889h5.142v2.889c0 0.157 0.127 0.284 0.284 0.284s0.284-0.127 0.284-0.284v-2.889h14.893v2.889c0 0.157 0.127 0.284 0.284 0.284s0.284-0.127 0.284-0.284v-9.198c0.001-0.157-0.126-0.284-0.283-0.284zM11.74 23.354h-5.142v-2.443h5.142v2.443zM11.74 20.342h-5.142v-2.444h5.142v2.444zM27.201 23.354h-14.893v-2.443h14.893v2.443zM27.201 20.342h-14.893v-2.444h14.893v2.444z"></path>
<path d="M2.281-0.021c-0.157 0-0.284 0.127-0.284 0.284v29.311c0 0.157 0.127 0.284 0.284 0.284s0.284-0.127 0.284-0.284v-29.311c0-0.157-0.127-0.284-0.284-0.284z"></path>
<path d="M0.718-0.021c-0.157 0-0.284 0.127-0.284 0.284v29.311c0 0.157 0.127 0.284 0.284 0.284s0.284-0.127 0.284-0.284v-29.311c0-0.157-0.127-0.284-0.284-0.284z"></path>
</symbol>
<symbol id="in" viewBox="0 0 32 32">
<path d="M31.452 5.724c-0.291-2.729-2.447-4.885-5.176-5.176-6.844-0.73-13.709-0.73-20.553 0-2.729 0.291-4.885 2.447-5.176 5.176-0.73 6.844-0.73 13.709 0 20.553 0.291 2.729 2.447 4.885 5.176 5.176 6.844 0.73 13.709 0.73 20.553 0 2.729-0.291 4.884-2.447 5.176-5.176 0.73-6.844 0.73-13.708 0-20.553z"></path>
<path d="M29.712 6.881c-0.258-2.422-2.171-4.334-4.593-4.593-6.073-0.648-12.165-0.648-18.238 0-2.422 0.259-4.334 2.171-4.593 4.593-0.648 6.073-0.648 12.165 0 18.238 0.259 2.422 2.171 4.335 4.593 4.593 6.073 0.648 12.165 0.648 18.238 0 2.422-0.258 4.335-2.171 4.593-4.593 0.648-6.073 0.648-12.164 0-18.238z"></path>
<path d="M0.479 25.613c0.022 0.221 0.045 0.442 0.068 0.664 0.291 2.729 2.447 4.884 5.176 5.176 6.844 0.73 13.709 0.73 20.553 0 2.729-0.291 4.884-2.447 5.176-5.176 0.024-0.221 0.046-0.442 0.069-0.664h-31.041z"></path>
<path d="M31.452 26.276c0.393-3.678 0.574-7.361 0.544-11.044l-7.314-7.314c-0.914-1.043-2.248-1.694-3.817-1.751-3.225-0.116-6.461-0.11-9.687 0-2.679 0.092-4.553 1.893-5.033 4.54-0.085 0.467-0.136 0.941-0.202 1.411v7.759c0.037 0.252 0.091 0.502 0.108 0.755 0.107 1.61 0.769 2.989 1.828 3.922l7.443 7.443c3.653 0.026 7.306-0.156 10.954-0.545 2.729-0.291 4.885-2.447 5.176-5.176z"></path>
<path d="M31.452 26.277c-0.291 2.729-2.447 4.885-5.176 5.176-3.647 0.389-7.301 0.571-10.953 0.545l-7.432-7.432c0.862 0.754 1.985 1.213 3.288 1.262 3.225 0.121 6.461 0.118 9.687 0.002 2.917-0.105 5.028-2.264 5.119-5.181 0.097-3.097 0.097-6.202 0-9.3-0.042-1.346-0.514-2.53-1.297-3.426l7.31 7.31c0.029 3.682-0.152 7.366-0.545 11.044z"></path>
<path d="M19.776 12.535c-0.937-1.020-2.282-1.66-3.776-1.66-2.831 0-5.125 2.295-5.125 5.125 0 1.494 0.64 2.839 1.66 3.776l11.859 11.859c0.628-0.055 1.255-0.116 1.883-0.182 2.729-0.291 4.885-2.447 5.176-5.176 0.067-0.627 0.128-1.255 0.182-1.883l-11.859-11.859z"></path>
<path d="M31.938 19.447l-9.544-9.544c-0.223-0.292-0.574-0.482-0.969-0.482-0.673 0-1.219 0.546-1.219 1.219 0 0.396 0.19 0.747 0.482 0.969l11.080 11.080c0.075-1.081 0.132-2.162 0.171-3.243z"></path>
<path d="M5.943 12.119c0.067-0.471 0.117-0.944 0.202-1.411 0.48-2.647 2.354-4.447 5.033-4.54 3.226-0.111 6.461-0.117 9.687-0 2.916 0.105 5.028 2.264 5.119 5.181 0.097 3.097 0.097 6.202 0 9.3-0.091 2.917-2.202 5.076-5.119 5.181-3.225 0.116-6.462 0.119-9.687-0.002-2.916-0.11-4.933-2.274-5.128-5.195-0.017-0.253-0.071-0.503-0.108-0.755 0-2.586 0-5.173 0-7.759zM16.003 24.101c1.476 0 2.954 0.044 4.428-0.010 2.311-0.086 3.733-1.465 3.787-3.774 0.067-2.877 0.067-5.758 0-8.636-0.054-2.309-1.477-3.72-3.787-3.769-2.932-0.062-5.868-0.062-8.8 0-2.293 0.048-3.719 1.431-3.781 3.714-0.079 2.914-0.079 5.832 0 8.746 0.062 2.283 1.488 3.634 3.781 3.719 1.456 0.054 2.915 0.010 4.372 0.010z"></path>
<path d="M5.943 12.119c0.067-0.471 0.117-0.944 0.202-1.411 0.48-2.647 2.354-4.447 5.033-4.54 3.226-0.111 6.461-0.117 9.687-0 2.916 0.105 5.028 2.264 5.119 5.181 0.097 3.097 0.097 6.202 0 9.3-0.091 2.917-2.202 5.076-5.119 5.181-3.225 0.116-6.462 0.119-9.687-0.002-2.916-0.11-4.933-2.274-5.128-5.195-0.017-0.253-0.071-0.503-0.108-0.755 0-2.586 0-5.173 0-7.759zM16.003 24.101c1.476 0 2.954 0.044 4.428-0.010 2.311-0.086 3.733-1.465 3.787-3.774 0.067-2.877 0.067-5.758 0-8.636-0.054-2.309-1.477-3.72-3.787-3.769-2.932-0.062-5.868-0.062-8.8 0-2.293 0.048-3.719 1.431-3.781 3.714-0.079 2.914-0.079 5.832 0 8.746 0.062 2.283 1.488 3.634 3.781 3.719 1.456 0.054 2.915 0.010 4.372 0.010z"></path>
<path d="M16 10.875c-2.831 0-5.125 2.295-5.125 5.125s2.295 5.126 5.125 5.126c2.831 0 5.126-2.295 5.126-5.126s-2.295-5.125-5.126-5.125zM16 19.361c-1.856 0-3.361-1.505-3.361-3.361s1.505-3.361 3.361-3.361c1.856 0 3.361 1.505 3.361 3.361s-1.505 3.361-3.361 3.361z"></path>
<path d="M22.644 10.641c0 0.673-0.546 1.219-1.219 1.219s-1.22-0.546-1.22-1.219c0-0.674 0.546-1.219 1.22-1.219s1.219 0.546 1.219 1.219z"></path>
</symbol>
<symbol id="phone" viewBox="0 0 32 32">
<path d="M4.657 0.536c-0.515 0.024-1.021 0.244-1.392 0.651l-2.595 2.852c0.004-0.008-0.010-0.007-0.084 0.097-0.039 0.054-0.070 0.113-0.090 0.176-1.056 3.364-0.348 7.064 1.376 10.584s4.475 6.888 7.633 9.651c3.158 2.764 6.721 4.926 10.119 5.999s6.692 1.058 9.133-0.713c0.027-0.020 0.052-0.041 0.075-0.065 0.064-0.064 0.066-0.072 0.056-0.063l0.010-0.012 2.582-2.84c0.742-0.816 0.682-2.098-0.134-2.84l-6.126-5.571c-0.816-0.742-2.098-0.683-2.84 0.133l-2.772 3.048c-2.25-0.651-4.173-1.756-6.023-3.439s-3.132-3.494-3.993-5.673l2.771-3.048c0.742-0.816 0.683-2.098-0.133-2.84l-6.126-5.571c-0.408-0.371-0.933-0.542-1.448-0.518l-0.001 0zM4.715 1.786c0.19-0.008 0.383 0.057 0.541 0.201l6.126 5.571c0.316 0.287 0.337 0.745 0.050 1.061l-3.063 3.366c-0.077 0.085-0.129 0.189-0.151 0.302s-0.013 0.229 0.027 0.337c0.93 2.537 2.429 4.618 4.493 6.495s4.275 3.174 6.889 3.859c0.111 0.029 0.228 0.027 0.339-0.005s0.21-0.095 0.287-0.18l3.064-3.367c0.287-0.315 0.744-0.336 1.060-0.049l6.127 5.571c0.316 0.287 0.336 0.744 0.049 1.060l-2.561 2.815c-2.003 1.438-4.826 1.519-7.986 0.521-3.173-1.002-6.617-3.076-9.666-5.744s-5.702-5.926-7.332-9.254c-1.614-3.294-2.199-6.624-1.312-9.559l2.502-2.75c0.143-0.158 0.33-0.242 0.52-0.251l0 0z"></path>
</symbol>
<symbol id="vk" viewBox="0 0 32 32">
<path d="M27.541 18.46c1.061 1.036 2.182 2.011 3.134 3.152 0.421 0.507 0.819 1.030 1.123 1.619 0.432 0.836 0.041 1.757-0.709 1.807l-4.662-0.002c-1.202 0.1-2.162-0.384-2.968-1.206-0.645-0.657-1.243-1.357-1.864-2.037-0.255-0.278-0.521-0.539-0.839-0.746-0.636-0.413-1.189-0.287-1.552 0.377-0.37 0.675-0.454 1.423-0.491 2.175-0.050 1.098-0.382 1.386-1.484 1.437-2.357 0.111-4.593-0.245-6.671-1.434-1.832-1.048-3.252-2.528-4.489-4.203-2.407-3.261-4.25-6.845-5.907-10.53-0.373-0.83-0.1-1.276 0.816-1.291 1.521-0.030 3.041-0.027 4.564-0.002 0.618 0.009 1.027 0.364 1.266 0.947 0.823 2.023 1.83 3.948 3.093 5.732 0.337 0.475 0.68 0.95 1.168 1.284 0.541 0.37 0.952 0.248 1.207-0.355 0.161-0.382 0.232-0.793 0.268-1.202 0.121-1.407 0.136-2.812-0.075-4.214-0.13-0.875-0.623-1.442-1.496-1.607-0.446-0.084-0.379-0.25-0.164-0.505 0.375-0.439 0.727-0.712 1.43-0.712h5.269c0.829 0.164 1.014 0.536 1.127 1.371l0.004 5.852c-0.009 0.323 0.161 1.282 0.743 1.496 0.466 0.152 0.773-0.22 1.052-0.516 1.261-1.339 2.162-2.921 2.966-4.559 0.357-0.72 0.664-1.469 0.961-2.216 0.22-0.555 0.566-0.828 1.191-0.816l5.071 0.005c0.15 0 0.302 0.002 0.448 0.027 0.855 0.146 1.089 0.513 0.825 1.348-0.416 1.309-1.225 2.4-2.016 3.496-0.846 1.17-1.75 2.3-2.589 3.477-0.77 1.075-0.709 1.617 0.248 2.55z"></path>
</symbol>
<symbol id="vertical-dots" viewBox="0 0 32 32">
<path stroke-linejoin="miter" stroke-linecap="butt" stroke-miterlimit="4" stroke-width="0.8" d="M16 0v32"></path>
</symbol>
<symbol id="check" viewBox="0 0 32 32">
<path d="M27.566 4.411c-1.187 0.531-2.326 1.18-3.412 1.903-2.185 1.437-4.182 3.149-6.056 4.975-1.873 1.83-3.616 3.788-5.265 5.824-0.412 0.509-2.258 2.776-2.258 2.776l-7.677-11.504-2.898 8.033 10.382 12.381c1.008-2.041 1.978-4.056 2.93-5.806 0.236-0.445 0.484-0.864 0.721-1.29 0 0 1.218-2.142 1.539-2.681 1.281-2.158 2.666-4.26 4.191-6.256 1.527-1.993 3.186-3.896 5.068-5.569 0.936-0.842 1.933-1.62 3-2.298 1.065-0.679 2.198-1.273 3.409-1.7-1.26 0.248-2.489 0.678-3.674 1.211z"></path>
</symbol>
<symbol id="dot" viewBox="0 0 32 32">
<path d="M30.476 16c0 7.855-6.822 14.222-15.238 14.222s-15.238-6.367-15.238-14.222c0-7.855 6.822-14.222 15.238-14.222s15.238 6.367 15.238 14.222z"></path>
</symbol>
<symbol id="finance" viewBox="0 0 28 32">
<path d="M0.542 13.742c0 0.357-0.542 0.357-0.542 0 0-7.588 6.154-13.742 13.742-13.742 7.591 0 13.742 6.154 13.742 13.742 0 0.357-0.539 0.357-0.539 0 0-5.129-8.428-5.132-8.428 0 0 0.357-0.555 0.357-0.555 0 0-5.116-8.441-5.116-8.441 0 0 0.357-0.555 0.357-0.555 0 0-5.106-8.425-5.142-8.425 0zM9.015 11.75c0.146-2.952 0.61-5.599 1.285-7.62 0.539-1.606 1.22-2.826 1.992-3.51-5.794 0.633-10.485 5.025-11.533 10.722 1.995-2.878 6.602-2.647 8.256 0.409zM17.921 11.617c-0.149-2.839-0.6-5.379-1.249-7.316-1.674-5.012-4.185-5.012-5.859 0-0.649 1.937-1.097 4.477-1.249 7.316 1.8-3.059 6.556-3.059 8.357 0zM26.725 11.341c-1.045-5.697-5.736-10.089-11.533-10.722 0.775 0.684 1.453 1.904 1.992 3.51 0.675 2.021 1.139 4.668 1.285 7.62 1.664-3.072 6.284-3.254 8.256-0.409z"></path>
<path d="M11.938 20.030v-2.791c-0.503 0.334-0.899 0.85-0.899 1.48 0 0.613 0.402 1.019 0.899 1.311zM12.48 20.896c-0.964-0.441-1.979-0.957-1.979-2.177 0-1.259 0.957-1.888 1.979-2.359v4.536z"></path>
<path d="M15.546 24.24v2.822c0.509-0.337 0.908-0.856 0.908-1.486 0-0.62-0.409-1.038-0.908-1.337zM15.007 23.371c0.967 0.448 1.989 0.98 1.989 2.206 0 1.262-0.963 1.891-1.989 2.358v-4.564z"></path>
<path d="M15.546 14.063c2.219 0.513 4.5 2.174 4.5 4.655 0 2.125-3.591 2.047-3.591 0 0-0.633-0.399-1.152-0.908-1.486v3.971c2.054 0.672 4.506 1.875 4.506 4.373 0 2.485-2.281 4.143-4.506 4.652-0.010 2.365-3.601 2.362-3.607-0.003-1.265-0.292-2.365-0.882-3.16-1.664-0.834-0.824-1.327-1.859-1.327-2.985 0-2.093 3.588-2.093 3.588 0 0 0.626 0.396 1.142 0.899 1.476v-3.968c-2.037-0.659-4.503-1.898-4.503-4.373 0-2.485 2.281-4.143 4.503-4.652 0.010-2.365 3.601-2.362 3.607 0.003zM12.48 14.070v0.431c-2.112 0.419-4.506 1.771-4.506 4.211 0 2.346 2.628 3.397 4.506 3.977v5.243c-1.015-0.464-1.979-1.090-1.979-2.355 0-1.382-2.511-1.382-2.511 0 0 0.976 0.435 1.878 1.168 2.599 0.931 0.921 2.060 1.359 3.322 1.609v0.435c0 1.664 2.527 1.664 2.527 0v-0.431c2.118-0.422 4.503-1.775 4.503-4.211 0-2.368-2.621-3.387-4.503-3.981v-5.239c1.019 0.464 1.989 1.090 1.989 2.362 0 1.346 2.508 1.401 2.508 0 0-2.436-2.381-3.792-4.496-4.214v-0.435c0-1.664-2.527-1.664-2.527 0z"></path>
</symbol>
<symbol id="education" viewBox="0 0 32 32">
<path d="M29.547 0.208h-15.418c-1.004 0-1.82 0.816-1.82 1.82v6.382l-11.454 4.808c-0.13 0.054-0.218 0.177-0.228 0.317s0.059 0.274 0.18 0.347l1.461 0.874v9.317c-0.747 0.17-1.308 0.839-1.308 1.639v0.898c0 0.206 0.167 0.373 0.373 0.373h2.616c0.206 0 0.373-0.167 0.373-0.373v-0.898c0-0.799-0.561-1.467-1.308-1.638v-8.871l1.155 0.691c-0.035 0.266-0.005-0.464-0.016 4.337 0 1.578 4.043 2.424 8.157 2.472v7.271c0 0.376 0.115 0.725 0.312 1.015 0.327 0.484 0.881 0.803 1.508 0.803h15.418c1.003 0 1.818-0.816 1.818-1.818 0 0.050-0.002-1.54 0-27.945 0-0.99-0.819-1.82-1.817-1.82zM3.576 25.712v0.525h-1.87v-0.525c0-0.517 0.418-0.937 0.933-0.937 0.517 0 0.937 0.421 0.937 0.937zM29.547 31.044h-15.418c-0.37 0-0.697-0.187-0.89-0.472-0.116-0.171-0.183-0.377-0.183-0.599v-2.52h17.561v2.521c0 0.584-0.487 1.070-1.070 1.070zM30.616 26.707h-17.562v-4.001c2.008-0.023 8.161-0.465 8.161-2.475-0.002-3.016 0.005-4.24-0.009-4.343l3.35-2.006c0.121-0.072 0.19-0.206 0.18-0.347s-0.098-0.263-0.228-0.317l-11.454-4.808v-3.115h17.562v21.412zM12.681 17.755c-2.069 0-6.053 0.267-7.784 1.397 0.011-3.457-0.12-3.232 0.306-3.525 1.075-0.792 4.15-1.344 7.478-1.344 1.451 0 7.788 0.399 7.788 1.741v3.129c-1.747-1.141-5.71-1.398-7.788-1.398zM13.055 2.028c0-0.591 0.481-1.072 1.072-1.072h15.418c0.592 0 1.071 0.488 1.071 1.072v2.521h-17.561v-2.52zM12.681 9.063l10.859 4.558-2.691 1.61c-1.43-1.419-6.162-1.694-8.168-1.694-2.008 0-6.741 0.276-8.168 1.694l-2.692-1.611 10.86-4.558zM4.898 20.231c0-0.604 2.673-1.731 7.784-1.731 5.113 0 7.788 1.127 7.788 1.731s-2.675 1.731-7.788 1.731c-5.11 0-7.784-1.127-7.784-1.731z"></path>
</symbol>
<symbol id="man" viewBox="0 0 32 32">
<path d="M2.278 31.754c3.514 0 23.845 0 27.355 0 0.136-3.12-0.088-8.295-2.006-10.759l-0.069-0.088-4.191-2.104c0.091-0.307 0.136-0.588 0.154-0.795 0.021-0.248-0.013-0.481-0.102-0.692-0.691-1.655-2.155-2.525-2.959-2.896 0.245-0.494 0.403-1.025 0.48-1.567 0.456-0.128 0.822-0.489 0.942-0.971l0.489-1.987c0.087-0.351 0.032-0.714-0.154-1.023-0.080-0.133-0.184-0.246-0.3-0.341 1.379-3.133-0.931-6.087-1.057-6.243-2.502-2.705-5.662-2.199-5.829-2.169-4.561 0.955-6.321 4.451-5.328 8.55-0.294 0.326-0.418 0.78-0.309 1.226l0.492 1.99c0.119 0.478 0.483 0.838 0.935 0.968 0.14 0.993 0.56 1.89 1.177 2.614v1.576c-6.545 3.352-2.398 1.213-7.643 3.867-0.010 0.049-2.461 2.654-2.097 10.375l0.022 0.472zM28.682 30.763h-4.502v-1.891l2.978-6.817c1.492 2.476 1.547 7.203 1.524 8.708zM22.538 17.923c-0.174 1.996-1.268 1.393-1.944 2.93-0.531-0.584-0.691-1.285-0.548-2.035 0.258-1.377-0.583-1.786-0.375-3.233l0.031-0.033v-0.005c0.018-0.020 0.184-0.217 0.232-0.28 1.781 0.776 2.639 2.221 2.604 2.656zM12.982 16.354c0.827 0.573 1.825 0.912 2.899 0.912 1.011 0 1.971-0.294 2.795-0.836 0.114 1.138 0.559 1.365 0.401 2.203-0.030 0.155-0.046 0.308-0.055 0.459l-3.066 3.456-3.919-4.419 0.946-0.494v-1.281zM11.75 12.125v-1.916c0-0.706 0-3.504 0-3.366 0.477-0.883 1.128-1.522 1.936-1.906 2.165 1.225 4.657 3.053 6.329 4.893-0.002 2.343 0.007 2.35-0.009 2.542l-0.001 0.012c-0.13 2.128-1.88 3.892-4.124 3.892-2.181 0-3.992-1.713-4.123-3.913-0.007-0.079-0.008-0.158-0.008-0.238zM11.139 18.607l4.816 5.43 3.234-3.644c0.074 0.213 0.178 0.414 0.296 0.608l-3.53 4.414-5.264-6.583 0.447-0.224zM21.001 11.329v-1.53c0.043-0.050 0.411-0.471 0.368-0.421 0.020 0.775 0.104-0.14-0.368 1.951zM15.212 1.090c0.196 0.012 2.824-0.4 4.901 1.843 0.082 0.103 1.773 2.281 1.093 4.665-0.233-1.061-0.638-2.42-1.278-3.068l-0.7 0.697c0.632 0.641 1.048 2.591 1.206 3.602-2.901-3.035-6.643-4.957-6.694-4.989-0.188 0.117-1.771 0.418-2.921 2.653l-0.055 0.107v1.642c-0.049 0.001-0.194 0.002-0.145 0.002-0.731-3.528 0.669-6.33 4.593-7.153zM10.515 9.262l0.249 1.008v1.060l-0.414-1.674c-0.061-0.25 0.124-0.344 0.165-0.394zM9.79 19.285l6.166 7.712 4.172-5.218c0.454 0.406 0.672 0.464 1.634 0.959l-0.325-1.101c-0.082-0.279 0.244-0.728 0.441-0.934 0.44-0.238 0.806-0.578 1.080-0.998l3.404 1.709-3.167 7.251v2.099h-14.477v-2.099l-3.169-7.25 4.242-2.129zM4.753 22.058l2.978 6.815v1.891h-4.502c-0.023-1.504 0.033-6.229 1.524-8.706z"></path>
</symbol>
<symbol id="fire" viewBox="0 0 32 32">
<path d="M26.175 16.593c-0.284-0.635-0.675-1.261-1.247-1.983-1.442-1.813-1.882-5.857-1.887-5.896-0.020-0.194-0.156-0.354-0.337-0.412-0.186-0.058-0.386-0.005-0.518 0.141-1.721 1.925-0.997 4.897-0.606 6.085 0.108 0.325 0.225 0.708 0.308 1.096 0.636 3.137-0.592 4.558-0.88 4.844-0.279 0.078-0.469 0.039-0.645-0.15-0.606-0.664-0.807-2.841-0.523-5.678 0.059-0.577 0.044-1.096-0.039-1.581-0.598-3.486-2.791-5.722-3.349-6.507-1.535-2.269-1.691-6.046-1.696-6.080-0.005-0.179-0.108-0.339-0.269-0.417-0.156-0.078-0.347-0.068-0.494 0.034-2.562 1.741-2.342 5.935-1.985 8.276 0.083 0.543 0.244 1.096 0.523 1.794 0.992 2.497-0.196 5.721-0.205 5.75s-0.020 0.053-0.024 0.082c-0.152 0.795-0.406 1.27-0.689 1.27-0.029 0-0.059-0.005-0.093-0.015-0.347-0.073-0.528-0.441-0.533-0.761-0.020-4.136-4.17-5.527-4.214-5.542-0.186-0.058-0.391-0.005-0.518 0.145-0.132 0.15-0.156 0.359-0.068 0.533 0.049 0.102 0.205 0.548 0.098 2.124-0.093 1.416-0.352 2.817-0.768 4.16-0.988 3.219-0.831 6.269-0.821 6.415 0.759 8.257 12.635 9.704 19.683 5.052 0.772-0.509 1.403-1.091 1.868-1.731 2.601-3.588 1.071-8.461-0.068-11.050zM8.111 24.481c0.015 0.267-0.191 0.494-0.46 0.509h-0.029c-0.259 0-0.474-0.199-0.489-0.456-0.044-0.708-0.034-1.45 0.020-2.255 0.020-0.267 0.254-0.465 0.523-0.451 0.269 0.019 0.474 0.252 0.455 0.519-0.054 0.766-0.064 1.464-0.020 2.133zM8.35 20.186c-0.029 0.247-0.24 0.427-0.484 0.427-0.020 0-0.039 0-0.064-0.005-0.264-0.034-0.455-0.272-0.425-0.538l0.235-1.871c0.034-0.262 0.274-0.451 0.548-0.422 0.269 0.034 0.46 0.276 0.425 0.543l-0.235 1.867z"></path>
</symbol>
</defs>
</svg>
